<svg width="70" height="70" viewBox="0 0 70 70" fill="none" xmlns="http://www.w3.org/2000/svg">
<path d="M8.75 36.4584L16.291 59.2492C16.4836 59.8315 16.8549 60.3384 17.3521 60.6976C17.8493 61.0568 18.4471 61.2501 19.0604 61.25H50.9396C51.5529 61.2501 52.1507 61.0568 52.6479 60.6976C53.1451 60.3384 53.5164 59.8315 53.709 59.2492L61.25 36.4584" stroke="#757575" stroke-width="4"/>
<path d="M27.8542 14.5834C27.6392 13.5244 27.6622 12.4308 27.9217 11.3818C28.1811 10.3328 28.6705 9.35452 29.3543 8.51782C30.0382 7.68112 30.8995 7.00689 31.8759 6.54389C32.8523 6.08089 33.9195 5.8407 35.0001 5.8407C36.0807 5.8407 37.1478 6.08089 38.1242 6.54389C39.1006 7.00689 39.9619 7.68112 40.6458 8.51782C41.3297 9.35452 41.819 10.3328 42.0785 11.3818C42.3379 12.4308 42.361 13.5244 42.1459 14.5834M16.6353 36.6378H9.21237C9.15164 36.6384 9.09141 36.6267 9.03527 36.6036C8.97914 36.5804 8.92825 36.5461 8.88565 36.5028C8.84305 36.4595 8.8096 36.4081 8.78731 36.3516C8.76502 36.2951 8.75434 36.2347 8.75591 36.174C8.98924 25.9336 16.9663 17.3323 27.7084 14.5834H42.2917C52.6124 17.5526 60.992 26.1888 61.2442 36.1755C61.2456 36.2359 61.2348 36.2961 61.2125 36.3523C61.1903 36.4085 61.1569 36.4597 61.1145 36.5028C61.072 36.5459 61.0214 36.5801 60.9655 36.6033C60.9097 36.6264 60.8497 36.6382 60.7892 36.6378H53.3649C49.9869 36.6374 46.7237 37.8635 44.1817 40.0882C41.6402 42.3125 38.3775 43.5386 35.0001 43.5386C31.6226 43.5386 28.36 42.3125 25.8184 40.0882C23.2765 37.8635 20.0133 36.6374 16.6353 36.6378Z" stroke="#757575" stroke-width="4" stroke-linecap="round" stroke-linejoin="round"/>
</svg>
