<svg width="60" height="60" viewBox="0 0 60 60" fill="none" xmlns="http://www.w3.org/2000/svg">
<path d="M7.5 31.25L13.9637 50.785C14.1288 51.2841 14.4471 51.7186 14.8732 52.0264C15.2994 52.3343 15.8118 52.5 16.3375 52.5H43.6625C44.1882 52.5 44.7006 52.3343 45.1268 52.0264C45.5529 51.7186 45.8712 51.2841 46.0362 50.785L52.5 31.25" stroke="#757575" stroke-width="4"/>
<path d="M23.8752 12.5C23.6909 11.5923 23.7106 10.6549 23.933 9.75579C24.1554 8.85663 24.5748 8.01813 25.161 7.30096C25.7472 6.58379 26.4854 6.00588 27.3224 5.60902C28.1593 5.21216 29.074 5.00629 30.0002 5.00629C30.9265 5.00629 31.8411 5.21216 32.6781 5.60902C33.515 6.00588 34.2532 6.58379 34.8394 7.30096C35.4256 8.01813 35.845 8.85663 36.0674 9.75579C36.2898 10.6549 36.3095 11.5923 36.1252 12.5M14.259 31.4038H7.89646C7.84441 31.4043 7.79278 31.3943 7.74467 31.3744C7.69655 31.3546 7.65293 31.3252 7.61641 31.2881C7.5799 31.251 7.55123 31.2069 7.53212 31.1585C7.51302 31.1101 7.50386 31.0583 7.50521 31.0063C7.70521 22.2288 14.5427 14.8563 23.7502 12.5H36.2502C45.0965 15.045 52.279 22.4475 52.4952 31.0075C52.4964 31.0594 52.4871 31.1109 52.468 31.1591C52.4489 31.2073 52.4203 31.2511 52.384 31.2881C52.3476 31.325 52.3042 31.3543 52.2563 31.3742C52.2084 31.3941 52.1571 31.4041 52.1052 31.4038H45.7415C42.8461 31.4035 40.049 32.4544 37.8702 34.3613C35.6917 36.2678 32.8952 37.3187 30.0002 37.3187C27.1052 37.3187 24.3087 36.2678 22.1302 34.3613C19.9514 32.4544 17.1544 31.4035 14.259 31.4038Z" stroke="#757575" stroke-width="4" stroke-linecap="round" stroke-linejoin="round"/>
</svg>
