<svg width="44" height="44" viewBox="0 0 44 44" fill="none" xmlns="http://www.w3.org/2000/svg">
<path d="M40.0984 1.66028H3.90497C2.66526 1.66028 1.66028 2.66526 1.66028 3.90497V40.0984C1.66028 41.3381 2.66526 42.3431 3.90497 42.3431H40.0984C41.3381 42.3431 42.3431 41.3381 42.3431 40.0984V3.90497C42.3431 2.66526 41.3381 1.66028 40.0984 1.66028Z" fill="#3D5A98"/>
<path d="M29.7275 42.3397V26.5857H35.0144L35.805 20.4463H29.7275V16.5276C29.7275 14.7504 30.2225 13.5369 32.7697 13.5369H36.0216V8.03693C34.4469 7.87312 32.8644 7.79509 31.2813 7.80318C26.5994 7.80318 23.375 10.6563 23.375 15.9191V20.4463H18.0881V26.5857H23.375V42.3397H29.7275Z" fill="white"/>
</svg>
