<svg width="88" height="78" viewBox="0 0 88 78" fill="none" xmlns="http://www.w3.org/2000/svg">
<path d="M11 45.5C14.0433 47.5865 18.6157 48.8053 23.8333 48.75C29.051 48.8053 33.6233 47.5865 36.6667 45.5C39.71 43.4135 44.2823 42.1947 49.5 42.25C54.7177 42.1947 59.29 43.4135 62.3333 45.5M29.3333 9.75C28.1729 10.4883 27.2326 11.4659 26.5938 12.5984C25.9549 13.7308 25.6367 14.9841 25.6667 16.25C25.6367 17.5159 25.9549 18.7692 26.5938 19.9016C27.2326 21.0341 28.1729 22.0117 29.3333 22.75M44 9.75C42.8395 10.4883 41.8993 11.4659 41.2604 12.5984C40.6216 13.7308 40.3034 14.9841 40.3333 16.25C40.3034 17.5159 40.6216 18.7692 41.2604 19.9016C41.8993 21.0341 42.8395 22.0117 44 22.75" stroke="#757575" stroke-width="4" stroke-linecap="round" stroke-linejoin="round"/>
<path d="M11 32.5H62.3333V48.75C62.3333 53.9217 60.0155 58.8816 55.8897 62.5386C51.7639 66.1955 46.1681 68.25 40.3333 68.25H33C27.1652 68.25 21.5695 66.1955 17.4437 62.5386C13.3179 58.8816 11 53.9217 11 48.75V32.5Z" stroke="#757575" stroke-width="4" stroke-linecap="round" stroke-linejoin="round"/>
<path d="M61.402 54.3595C63.0395 55.0258 64.8366 55.3253 66.6354 55.2318C68.4341 55.1383 70.1794 54.6546 71.7178 53.8231C73.2562 52.9917 74.5406 51.838 75.4582 50.4635C76.3757 49.089 76.8983 47.5358 76.98 45.9404C77.0616 44.345 76.6999 42.7562 75.9265 41.3137C75.1531 39.8712 73.9918 38.6192 72.5447 37.6677C71.0975 36.7162 69.4088 36.0944 67.627 35.8569C65.8452 35.6194 64.0249 35.7736 62.326 36.3057" stroke="#757575" stroke-width="4" stroke-linecap="round" stroke-linejoin="round"/>
</svg>
