<svg width="68" height="60" viewBox="0 0 68 60" fill="none" xmlns="http://www.w3.org/2000/svg">
<path d="M8.46155 35C10.8026 36.605 14.3198 37.5425 18.3333 37.5C22.3469 37.5425 25.8641 36.605 28.2051 35C30.5462 33.395 34.0633 32.4575 38.0769 32.5C42.0905 32.4575 45.6077 33.395 47.9487 35M22.5641 7.5C21.6714 8.06793 20.9482 8.81993 20.4568 9.69106C19.9654 10.5622 19.7206 11.5263 19.7436 12.5C19.7206 13.4737 19.9654 14.4378 20.4568 15.3089C20.9482 16.1801 21.6714 16.9321 22.5641 17.5M33.8462 7.5C32.9535 8.06793 32.2302 8.81993 31.7388 9.69106C31.2474 10.5622 31.0026 11.5263 31.0257 12.5C31.0026 13.4737 31.2474 14.4378 31.7388 15.3089C32.2302 16.1801 32.9535 16.9321 33.8462 17.5" stroke="#757575" stroke-width="4" stroke-linecap="round" stroke-linejoin="round"/>
<path d="M8.46155 25H47.9487V37.5C47.9487 41.4782 46.1658 45.2936 42.9921 48.1066C39.8184 50.9196 35.5139 52.5 31.0257 52.5H25.3846C20.8963 52.5 16.5919 50.9196 13.4182 48.1066C10.2445 45.2936 8.46155 41.4782 8.46155 37.5V25Z" stroke="#757575" stroke-width="4" stroke-linecap="round" stroke-linejoin="round"/>
<path d="M47.2323 41.815C48.4919 42.3275 49.8743 42.558 51.258 42.486C52.6416 42.4141 53.9841 42.042 55.1675 41.4024C56.3509 40.7629 57.3389 39.8754 58.0448 38.8181C58.7506 37.7608 59.1525 36.566 59.2153 35.3388C59.2782 34.1115 58.9999 32.8894 58.405 31.7798C57.8101 30.6702 56.9168 29.7071 55.8036 28.9752C54.6904 28.2433 53.3914 27.765 52.0208 27.5823C50.6501 27.3996 49.2499 27.5181 47.9431 27.9275" stroke="#757575" stroke-width="4" stroke-linecap="round" stroke-linejoin="round"/>
</svg>
