<svg width="284" height="70" viewBox="0 0 284 70" fill="none" xmlns="http://www.w3.org/2000/svg">
<rect x="1" y="1" width="267" height="68" rx="2" fill="white" stroke="#A0A0A0" stroke-width="2"/>
<rect x="18" y="17" width="234" height="36" rx="2" fill="white" stroke="#A0A0A0" stroke-width="2"/>
<path d="M39.2473 44L33.6313 27.2H36.1033L41.2633 42.704H40.0153L45.3673 27.2H47.5753L52.8073 42.704H51.6073L56.8393 27.2H59.1193L53.5033 44H50.9833L46.0873 29.624H46.7353L41.8153 44H39.2473ZM74.1032 27.2H76.5032V44H74.1032V27.2ZM64.4552 44H62.0552V27.2H64.4552V44ZM74.3192 36.512H64.2152V34.424H74.3192V36.512ZM81.5317 44V27.2H83.9317V44H81.5317ZM93.8574 44.192C92.5774 44.192 91.3534 44 90.1854 43.616C89.0174 43.216 88.0974 42.704 87.4254 42.08L88.3134 40.208C88.9534 40.768 89.7694 41.232 90.7614 41.6C91.7534 41.968 92.7854 42.152 93.8574 42.152C94.8334 42.152 95.6254 42.04 96.2334 41.816C96.8414 41.592 97.2894 41.288 97.5774 40.904C97.8654 40.504 98.0094 40.056 98.0094 39.56C98.0094 38.984 97.8174 38.52 97.4334 38.168C97.0654 37.816 96.5774 37.536 95.9694 37.328C95.3774 37.104 94.7214 36.912 94.0014 36.752C93.2814 36.592 92.5534 36.408 91.8174 36.2C91.0974 35.976 90.4334 35.696 89.8254 35.36C89.2334 35.024 88.7534 34.576 88.3854 34.016C88.0174 33.44 87.8334 32.704 87.8334 31.808C87.8334 30.944 88.0574 30.152 88.5054 29.432C88.9694 28.696 89.6734 28.112 90.6174 27.68C91.5774 27.232 92.7934 27.008 94.2654 27.008C95.2414 27.008 96.2094 27.136 97.1694 27.392C98.1294 27.648 98.9614 28.016 99.6654 28.496L98.8734 30.416C98.1534 29.936 97.3934 29.592 96.5934 29.384C95.7934 29.16 95.0174 29.048 94.2654 29.048C93.3214 29.048 92.5454 29.168 91.9374 29.408C91.3294 29.648 90.8814 29.968 90.5934 30.368C90.3214 30.768 90.1854 31.216 90.1854 31.712C90.1854 32.304 90.3694 32.776 90.7374 33.128C91.1214 33.48 91.6094 33.76 92.2014 33.968C92.8094 34.176 93.4734 34.368 94.1934 34.544C94.9134 34.704 95.6334 34.888 96.3534 35.096C97.0894 35.304 97.7534 35.576 98.3454 35.912C98.9534 36.248 99.4414 36.696 99.8094 37.256C100.177 37.816 100.361 38.536 100.361 39.416C100.361 40.264 100.129 41.056 99.6654 41.792C99.2014 42.512 98.4814 43.096 97.5054 43.544C96.5454 43.976 95.3294 44.192 93.8574 44.192ZM103.868 44V27.2H110.42C111.892 27.2 113.148 27.432 114.188 27.896C115.228 28.36 116.028 29.032 116.588 29.912C117.148 30.792 117.428 31.84 117.428 33.056C117.428 34.272 117.148 35.32 116.588 36.2C116.028 37.064 115.228 37.736 114.188 38.216C113.148 38.68 111.892 38.912 110.42 38.912H105.188L106.268 37.784V44H103.868ZM106.268 38.024L105.188 36.824H110.348C111.884 36.824 113.044 36.496 113.828 35.84C114.628 35.184 115.028 34.256 115.028 33.056C115.028 31.856 114.628 30.928 113.828 30.272C113.044 29.616 111.884 29.288 110.348 29.288H105.188L106.268 28.088V38.024ZM123.138 34.448H131.778V36.488H123.138V34.448ZM123.354 41.912H133.146V44H120.954V27.2H132.81V29.288H123.354V41.912ZM137.032 44V27.2H143.584C145.056 27.2 146.312 27.432 147.352 27.896C148.392 28.36 149.192 29.032 149.752 29.912C150.312 30.792 150.592 31.84 150.592 33.056C150.592 34.272 150.312 35.32 149.752 36.2C149.192 37.064 148.392 37.728 147.352 38.192C146.312 38.656 145.056 38.888 143.584 38.888H138.352L139.432 37.784V44H137.032ZM148.264 44L143.992 37.904H146.56L150.88 44H148.264ZM139.432 38.024L138.352 36.848H143.512C145.048 36.848 146.208 36.52 146.992 35.864C147.792 35.192 148.192 34.256 148.192 33.056C148.192 31.856 147.792 30.928 146.992 30.272C146.208 29.616 145.048 29.288 143.512 29.288H138.352L139.432 28.088V38.024ZM159.365 44.192C158.085 44.192 156.861 44 155.693 43.616C154.525 43.216 153.605 42.704 152.933 42.08L153.821 40.208C154.461 40.768 155.277 41.232 156.269 41.6C157.261 41.968 158.293 42.152 159.365 42.152C160.341 42.152 161.133 42.04 161.741 41.816C162.349 41.592 162.797 41.288 163.085 40.904C163.373 40.504 163.517 40.056 163.517 39.56C163.517 38.984 163.325 38.52 162.941 38.168C162.573 37.816 162.085 37.536 161.477 37.328C160.885 37.104 160.229 36.912 159.509 36.752C158.789 36.592 158.061 36.408 157.325 36.2C156.605 35.976 155.941 35.696 155.333 35.36C154.741 35.024 154.261 34.576 153.893 34.016C153.525 33.44 153.341 32.704 153.341 31.808C153.341 30.944 153.565 30.152 154.013 29.432C154.477 28.696 155.181 28.112 156.125 27.68C157.085 27.232 158.301 27.008 159.773 27.008C160.749 27.008 161.717 27.136 162.677 27.392C163.637 27.648 164.469 28.016 165.173 28.496L164.381 30.416C163.661 29.936 162.901 29.592 162.101 29.384C161.301 29.16 160.525 29.048 159.773 29.048C158.829 29.048 158.053 29.168 157.445 29.408C156.837 29.648 156.389 29.968 156.101 30.368C155.829 30.768 155.693 31.216 155.693 31.712C155.693 32.304 155.877 32.776 156.245 33.128C156.629 33.48 157.117 33.76 157.709 33.968C158.317 34.176 158.981 34.368 159.701 34.544C160.421 34.704 161.141 34.888 161.861 35.096C162.597 35.304 163.261 35.576 163.853 35.912C164.461 36.248 164.949 36.696 165.317 37.256C165.685 37.816 165.869 38.536 165.869 39.416C165.869 40.264 165.637 41.056 165.173 41.792C164.709 42.512 163.989 43.096 163.013 43.544C162.053 43.976 160.837 44.192 159.365 44.192ZM183.333 44.192C182.053 44.192 180.869 43.984 179.781 43.568C178.709 43.136 177.773 42.536 176.973 41.768C176.189 40.984 175.573 40.072 175.125 39.032C174.677 37.992 174.453 36.848 174.453 35.6C174.453 34.352 174.677 33.208 175.125 32.168C175.573 31.128 176.197 30.224 176.997 29.456C177.797 28.672 178.733 28.072 179.805 27.656C180.893 27.224 182.077 27.008 183.357 27.008C184.653 27.008 185.845 27.232 186.933 27.68C188.037 28.112 188.973 28.76 189.741 29.624L188.181 31.136C187.541 30.464 186.821 29.968 186.021 29.648C185.221 29.312 184.365 29.144 183.453 29.144C182.509 29.144 181.629 29.304 180.813 29.624C180.013 29.944 179.317 30.392 178.725 30.968C178.133 31.544 177.669 32.232 177.333 33.032C177.013 33.816 176.853 34.672 176.853 35.6C176.853 36.528 177.013 37.392 177.333 38.192C177.669 38.976 178.133 39.656 178.725 40.232C179.317 40.808 180.013 41.256 180.813 41.576C181.629 41.896 182.509 42.056 183.453 42.056C184.365 42.056 185.221 41.896 186.021 41.576C186.821 41.24 187.541 40.728 188.181 40.04L189.741 41.552C188.973 42.416 188.037 43.072 186.933 43.52C185.845 43.968 184.645 44.192 183.333 44.192ZM190.222 44L197.83 27.2H200.206L207.838 44H205.318L198.526 28.544H199.486L192.694 44H190.222ZM193.462 39.8L194.11 37.88H203.566L204.262 39.8H193.462ZM212.504 35.144H221.168V37.208H212.504V35.144ZM212.744 44H210.344V27.2H222.2V29.288H212.744V44ZM227.763 34.448H236.403V36.488H227.763V34.448ZM227.979 41.912H237.771V44H225.579V27.2H237.435V29.288H227.979V41.912ZM229.731 25.832L232.995 22.712H235.923L231.891 25.832H229.731Z" fill="#282425" fill-opacity="0.76"/>
</svg>
