<svg width="25" height="25" viewBox="0 0 25 25" fill="none" xmlns="http://www.w3.org/2000/svg">
<path d="M4.16667 20.8333C3.59375 20.8333 3.10347 20.6295 2.69583 20.2219C2.28819 19.8142 2.08403 19.3236 2.08333 18.75V6.25C2.08333 5.67708 2.2875 5.18681 2.69583 4.77917C3.10417 4.37153 3.59444 4.16736 4.16667 4.16667H20.8333C21.4063 4.16667 21.8969 4.37083 22.3052 4.77917C22.7135 5.1875 22.9174 5.67778 22.9167 6.25V18.75C22.9167 19.3229 22.7128 19.8135 22.3052 20.2219C21.8976 20.6302 21.4069 20.834 20.8333 20.8333H4.16667ZM12.5 13.5417L4.16667 8.33333V18.75H20.8333V8.33333L12.5 13.5417ZM12.5 11.4583L20.8333 6.25H4.16667L12.5 11.4583ZM4.16667 8.33333V6.25V18.75V8.33333Z" fill="white"/>
</svg>
