<svg width="25" height="25" viewBox="0 0 25 25" fill="none" xmlns="http://www.w3.org/2000/svg">
<path d="M4.16667 20.8334C3.59375 20.8334 3.10347 20.6296 2.69583 20.222C2.28819 19.8143 2.08403 19.3237 2.08333 18.7501V6.25008C2.08333 5.67716 2.2875 5.18689 2.69583 4.77925C3.10417 4.37161 3.59444 4.16744 4.16667 4.16675H20.8333C21.4063 4.16675 21.8969 4.37091 22.3052 4.77925C22.7135 5.18758 22.9174 5.67786 22.9167 6.25008V18.7501C22.9167 19.323 22.7128 19.8136 22.3052 20.222C21.8976 20.6303 21.4069 20.8341 20.8333 20.8334H4.16667ZM12.5 13.5417L4.16667 8.33341V18.7501H20.8333V8.33341L12.5 13.5417ZM12.5 11.4584L20.8333 6.25008H4.16667L12.5 11.4584ZM4.16667 8.33341V6.25008V18.7501V8.33341Z" fill="#757575"/>
</svg>
