<svg width="60" height="60" viewBox="0 0 60 60" fill="none" xmlns="http://www.w3.org/2000/svg">
<path d="M1.77819 4.08902C2.00857 2.94431 2.72487 1.9045 3.79906 1.15542C4.87324 0.406334 6.23531 -0.00319571 7.64182 1.87804e-05C9.10364 1.87804e-05 10.4418 0.432018 11.4818 1.14752C12.61 0.404319 14.0109 -0.000327763 15.4545 1.87804e-05C16.9564 1.87804e-05 18.3382 0.429018 19.4273 1.14752C20.5037 0.404074 21.8635 -0.00226987 23.2673 1.87804e-05C24.6738 -0.00319571 26.0359 0.406334 27.11 1.15542C28.1842 1.9045 28.9005 2.94431 29.1309 4.08902C29.8 7.46702 30.9091 13.692 30.9091 18C30.9109 20.0261 30.3268 22.0233 29.2051 23.8258C28.0835 25.6282 26.4567 27.1839 24.46 28.3635C23.2964 29.0535 22.7273 29.886 22.7273 30.5985C22.7273 30.6555 22.7291 30.6945 22.7327 30.7395C22.8927 32.3835 24.5455 49.452 24.5455 52.5C24.5455 54.4891 23.5877 56.3968 21.8828 57.8033C20.1779 59.2098 17.8656 60 15.4545 60C13.0435 60 10.7312 59.2098 9.02631 57.8033C7.32143 56.3968 6.36364 54.4891 6.36364 52.5C6.36364 49.452 8.01637 32.3835 8.17455 30.7395C8.17965 30.6926 8.18208 30.6456 8.18182 30.5985C8.18182 29.886 7.61455 29.0535 6.44909 28.3635C4.45237 27.1839 2.82563 25.6282 1.70399 23.8258C0.582342 22.0233 -0.00182633 20.0261 4.28925e-06 18C4.28925e-06 13.692 1.1091 7.46702 1.77819 4.08902ZM21.8182 19.125C21.8182 19.6223 21.5787 20.0992 21.1525 20.4508C20.7263 20.8025 20.1482 21 19.5455 21C18.9427 21 18.3646 20.8025 17.9384 20.4508C17.5122 20.0992 17.2727 19.6223 17.2727 19.125V5.25002C17.2727 4.85219 17.0812 4.47066 16.7402 4.18936C16.3992 3.90805 15.9368 3.75002 15.4545 3.75002C14.9723 3.75002 14.5099 3.90805 14.1689 4.18936C13.8279 4.47066 13.6364 4.85219 13.6364 5.25002V19.125C13.6364 19.6223 13.3969 20.0992 12.9707 20.4508C12.5445 20.8025 11.9664 21 11.3636 21C10.7609 21 10.1828 20.8025 9.75658 20.4508C9.33036 20.0992 9.09091 19.6223 9.09091 19.125V4.94552C9.09091 4.62845 8.93824 4.32437 8.66648 4.10017C8.39473 3.87597 8.02614 3.75002 7.64182 3.75002C6.93637 3.75002 6.36909 4.15952 6.26364 4.69502C5.59091 8.09552 4.54546 14.0385 4.54546 18C4.54368 19.4307 4.95604 20.8411 5.74823 22.1137C6.54043 23.3864 7.68955 24.4846 9.1 25.317C10.9545 26.415 12.7273 28.2465 12.7273 30.597C12.7273 30.744 12.7218 30.882 12.7073 31.0395C12.5327 32.82 10.9091 49.65 10.9091 52.5C10.9091 53.4946 11.388 54.4484 12.2404 55.1517C13.0929 55.8549 14.249 56.25 15.4545 56.25C16.6601 56.25 17.8162 55.8549 18.6687 55.1517C19.5211 54.4484 20 53.4946 20 52.5C20 49.65 18.3764 32.82 18.2036 31.0395C18.1898 30.8928 18.1825 30.7457 18.1818 30.5985C18.1818 28.2465 19.9545 26.4135 21.8091 25.317C23.2195 24.4846 24.3687 23.3864 25.1609 22.1137C25.9531 20.8411 26.3654 19.4307 26.3636 18C26.3636 14.0385 25.3182 8.09552 24.6455 4.69502C24.5893 4.42809 24.4198 4.18638 24.1672 4.01321C23.9147 3.84005 23.5956 3.74674 23.2673 3.75002C22.883 3.75002 22.5144 3.87597 22.2426 4.10017C21.9709 4.32437 21.8182 4.62845 21.8182 4.94552V19.125ZM53.6364 3.79802V28.125C53.6364 29.01 53.9782 33.12 54.3545 37.6275L54.38 37.9335C54.8891 44.0325 55.4545 50.8365 55.4545 52.5C55.4545 53.4946 54.9757 54.4484 54.1232 55.1517C53.2708 55.8549 52.1146 56.25 50.9091 56.25C49.7036 56.25 48.5474 55.8549 47.695 55.1517C46.8425 54.4484 46.3636 53.4946 46.3636 52.5C46.3636 51.027 46.8091 45.021 47.2673 39.27C47.5361 35.9046 47.813 32.5395 48.0982 29.175L48.1764 28.257C48.1983 28.0003 48.156 27.7426 48.052 27.4999C47.948 27.2573 47.7846 27.0349 47.5719 26.8467C47.3592 26.6584 47.1018 26.5082 46.8157 26.4056C46.5297 26.303 46.221 26.25 45.9091 26.25H40.4545C40.0929 26.25 39.746 26.1315 39.4903 25.9205C39.2346 25.7095 39.0909 25.4234 39.0909 25.125V16.875C39.0908 13.5887 40.585 10.422 43.2782 8.00071C45.9714 5.5794 49.6677 4.0797 53.6364 3.79802ZM43.4727 30L43.3582 31.368C43.1873 33.411 42.9582 36.168 42.7327 39.024C42.2818 44.685 41.8182 50.8665 41.8182 52.5C41.8182 54.4891 42.776 56.3968 44.4808 57.8033C46.1857 59.2098 48.498 60 50.9091 60C53.3201 60 55.6325 59.2098 57.3373 57.8033C59.0422 56.3968 60 54.4891 60 52.5C60 50.6865 59.4273 43.809 58.9309 37.872L58.9145 37.677C58.5182 32.919 58.1818 28.86 58.1818 28.125V1.87502C58.1818 0.840019 57.1636 1.87804e-05 55.9091 1.87804e-05H55C43.7036 1.87804e-05 34.5455 7.55552 34.5455 16.875V25.125C34.5455 26.4179 35.168 27.6579 36.2762 28.5722C37.3844 29.4864 38.8874 30 40.4545 30H43.4727Z" fill="#757575"/>
</svg>
