<svg width="70" height="61" viewBox="0 0 70 61" fill="none" xmlns="http://www.w3.org/2000/svg">
<path d="M2.07455 4.13445C2.34334 2.97703 3.17902 1.92566 4.43223 1.16825C5.68545 0.410849 7.27452 -0.00323122 8.91546 1.89891e-05C10.6209 1.89891e-05 12.1821 0.436819 13.3955 1.16027C14.7116 0.408811 16.346 -0.000331404 18.0303 1.89891e-05C19.7824 1.89891e-05 21.3945 0.433785 22.6652 1.16027C23.9209 0.408564 25.5074 -0.00229509 27.1452 1.89891e-05C28.7861 -0.00323122 30.3752 0.410849 31.6284 1.16825C32.8816 1.92566 33.7173 2.97703 33.9861 4.13445C34.7667 7.54998 36.0606 13.8441 36.0606 18.2C36.0627 20.2486 35.3812 22.268 34.0726 24.0905C32.764 25.913 30.8662 27.4859 28.5367 28.6787C27.1791 29.3763 26.5152 30.2181 26.5152 30.9385C26.5152 30.9961 26.5173 31.0356 26.5215 31.0811C26.7082 32.7433 28.6364 50.0015 28.6364 53.0833C28.6364 55.0946 27.5189 57.0234 25.5299 58.4456C23.5409 59.8677 20.8432 60.6667 18.0303 60.6667C15.2174 60.6667 12.5197 59.8677 10.5307 58.4456C8.54167 57.0234 7.42425 55.0946 7.42425 53.0833C7.42425 50.0015 9.35243 32.7433 9.53697 31.0811C9.54293 31.0337 9.54576 30.9861 9.54546 30.9385C9.54546 30.2181 8.88364 29.3763 7.52394 28.6787C5.19443 27.4859 3.29657 25.913 1.98798 24.0905C0.679399 22.268 -0.00213072 20.2486 5.00412e-06 18.2C5.00412e-06 13.8441 1.29394 7.54998 2.07455 4.13445ZM25.4545 19.3375C25.4545 19.8403 25.1752 20.3225 24.6779 20.6781C24.1807 21.0336 23.5063 21.2333 22.803 21.2333C22.0998 21.2333 21.4254 21.0336 20.9281 20.6781C20.4309 20.3225 20.1515 19.8403 20.1515 19.3375V5.30835C20.1515 4.90611 19.928 4.52034 19.5302 4.23591C19.1324 3.95148 18.5929 3.79168 18.0303 3.79168C17.4677 3.79168 16.9282 3.95148 16.5304 4.23591C16.1326 4.52034 15.9091 4.90611 15.9091 5.30835V19.3375C15.9091 19.8403 15.6297 20.3225 15.1325 20.6781C14.6352 21.0336 13.9608 21.2333 13.2576 21.2333C12.5544 21.2333 11.8799 21.0336 11.3827 20.6781C10.8854 20.3225 10.6061 19.8403 10.6061 19.3375V5.00047C10.6061 4.67988 10.4279 4.37242 10.1109 4.14573C9.79385 3.91904 9.36383 3.79168 8.91546 3.79168C8.09243 3.79168 7.43061 4.20573 7.30758 4.74718C6.52273 8.18547 5.30303 14.1945 5.30303 18.2C5.30096 19.6466 5.78204 21.0726 6.70627 22.3594C7.6305 23.6463 8.97115 24.7567 10.6167 25.5983C12.7803 26.7085 14.8485 28.5604 14.8485 30.937C14.8485 31.0856 14.8421 31.2251 14.8252 31.3844C14.6215 33.1847 12.7273 50.2017 12.7273 53.0833C12.7273 54.0889 13.286 55.0534 14.2805 55.7645C15.275 56.4755 16.6239 56.875 18.0303 56.875C19.4368 56.875 20.7856 56.4755 21.7801 55.7645C22.7746 55.0534 23.3333 54.0889 23.3333 53.0833C23.3333 50.2017 21.4391 33.1847 21.2376 31.3844C21.2214 31.236 21.213 31.0873 21.2121 30.9385C21.2121 28.5604 23.2803 26.707 25.4439 25.5983C27.0895 24.7567 28.4301 23.6463 29.3543 22.3594C30.2786 21.0726 30.7597 19.6466 30.7576 18.2C30.7576 14.1945 29.5379 8.18547 28.753 4.74718C28.6875 4.47729 28.4897 4.2329 28.1951 4.05781C27.9005 3.88272 27.5282 3.78837 27.1452 3.79168C26.6968 3.79168 26.2668 3.91904 25.9497 4.14573C25.6327 4.37242 25.4545 4.67988 25.4545 5.00047V19.3375ZM62.5758 3.84022V28.4375C62.5758 29.3323 62.9745 33.488 63.4136 38.0456L63.4433 38.355C64.0373 44.5218 64.697 51.4014 64.697 53.0833C64.697 54.0889 64.1383 55.0534 63.1437 55.7645C62.1492 56.4755 60.8004 56.875 59.3939 56.875C57.9875 56.875 56.6386 56.4755 55.6441 55.7645C54.6496 55.0534 54.0909 54.0889 54.0909 53.0833C54.0909 51.594 54.6106 45.5212 55.1451 39.7063C55.4587 36.3035 55.7819 32.9011 56.1145 29.4992L56.2058 28.571C56.2314 28.3114 56.182 28.0508 56.0607 27.8055C55.9393 27.5602 55.7487 27.3353 55.5005 27.145C55.2524 26.9546 54.9521 26.8028 54.6184 26.699C54.2846 26.5952 53.9245 26.5417 53.5606 26.5417H47.197C46.775 26.5417 46.3704 26.4218 46.072 26.2085C45.7737 25.9952 45.6061 25.7059 45.6061 25.4042V17.0625C45.6059 13.7397 47.3492 10.5378 50.4913 8.0896C53.6334 5.64139 57.9456 4.12503 62.5758 3.84022ZM50.7182 30.3333L50.5845 31.7165C50.3851 33.7822 50.1179 36.5699 49.8548 39.4576C49.3288 45.1815 48.7879 51.4317 48.7879 53.0833C48.7879 55.0946 49.9053 57.0234 51.8943 58.4456C53.8833 59.8677 56.581 60.6667 59.3939 60.6667C62.2068 60.6667 64.9045 59.8677 66.8935 58.4456C68.8826 57.0234 70 55.0946 70 53.0833C70 51.2497 69.3318 44.2958 68.7527 38.2928L68.7336 38.0956C68.2712 33.2848 67.8788 29.1807 67.8788 28.4375V1.89585C67.8788 0.849352 66.6909 1.89891e-05 65.2273 1.89891e-05H64.1667C50.9876 1.89891e-05 40.303 7.63947 40.303 17.0625V25.4042C40.303 26.7115 41.0293 27.9652 42.3222 28.8896C43.6151 29.814 45.3686 30.3333 47.197 30.3333H50.7182Z" fill="#757575"/>
</svg>
