<svg width="25" height="25" viewBox="0 0 25 25" fill="none" xmlns="http://www.w3.org/2000/svg">
<path d="M12.5 2.08325C18.2531 2.08325 22.9167 6.74679 22.9167 12.4999C22.9167 18.253 18.2531 22.9166 12.5 22.9166C10.727 22.9191 8.98304 22.4672 7.43437 21.6041L7.11667 21.4187L3.95833 22.3478C3.78646 22.3985 3.6045 22.4044 3.4297 22.365C3.25491 22.3256 3.09306 22.2423 2.95952 22.1228C2.82597 22.0033 2.72515 21.8517 2.66661 21.6824C2.60806 21.513 2.59374 21.3316 2.625 21.1551L2.65208 21.0416L3.58125 17.8833C2.59901 16.2596 2.08092 14.3976 2.08333 12.4999C2.08333 6.74679 6.74687 2.08325 12.5 2.08325ZM12.5 4.16659C11.0079 4.16631 9.54318 4.56664 8.25868 5.32577C6.97417 6.08489 5.91704 7.17496 5.19767 8.48215C4.4783 9.78934 4.12309 11.2657 4.16912 12.757C4.21516 14.2484 4.66075 15.7 5.45937 16.9603C5.66562 17.2853 5.75417 17.6853 5.68437 18.0822L5.64375 18.252L5.18437 19.8155L6.74792 19.3562C7.19896 19.2228 7.66771 19.3041 8.03958 19.5405C9.13159 20.232 10.3695 20.6599 11.6554 20.7906C12.9412 20.9212 14.2399 20.7509 15.4487 20.2932C16.6574 19.8355 17.7431 19.1029 18.62 18.1533C19.4968 17.2038 20.1408 16.0632 20.5009 14.8219C20.8611 13.5806 20.9275 12.2725 20.695 11.0011C20.4626 9.72964 19.9375 8.52971 19.1614 7.49614C18.3854 6.46258 17.3795 5.6237 16.2233 5.04584C15.0672 4.46797 13.7925 4.16696 12.5 4.16659ZM10.201 10.201C10.3804 10.0216 10.6191 9.91387 10.8722 9.89795C11.1254 9.88203 11.3756 9.95903 11.576 10.1145L11.674 10.201L14.0625 12.5895L16.451 10.201C16.6385 10.0141 16.89 9.90568 17.1546 9.8976C17.4191 9.88952 17.6768 9.98243 17.8753 10.1575C18.0738 10.3325 18.1982 10.5765 18.2233 10.84C18.2484 11.1035 18.1723 11.3666 18.0104 11.576L17.924 11.6739L14.799 14.7989C14.6196 14.9782 14.3809 15.086 14.1278 15.1019C13.8746 15.1178 13.6244 15.0408 13.424 14.8853L13.326 14.7989L10.9375 12.4103L8.54896 14.7989C8.3615 14.9857 8.10996 15.0942 7.84543 15.1022C7.5809 15.1103 7.32321 15.0174 7.12471 14.8424C6.9262 14.6673 6.80176 14.4233 6.77667 14.1598C6.75157 13.8964 6.8277 13.6332 6.98958 13.4239L7.07604 13.326L10.201 10.201Z" fill="#757575"/>
</svg>
