<svg width="57" height="62" viewBox="0 0 57 62" fill="none" xmlns="http://www.w3.org/2000/svg">
<path d="M34.4375 62V51.6667C34.4375 49.9538 33.8119 48.3111 32.6984 47.0999C31.5849 45.8888 30.0747 45.2083 28.5 45.2083H27.3125V62M48.6875 51.6667V47.7917C48.6875 46.9435 48.5339 46.1037 48.2355 45.3202C47.9371 44.5366 47.4998 43.8246 46.9484 43.2249C46.3971 42.6252 45.7426 42.1495 45.0222 41.8249C44.3018 41.5004 43.5297 41.3333 42.75 41.3333H41.5625V51.6667V27.125H40.375C38.8003 27.125 37.2901 27.8054 36.1766 29.0166C35.0631 30.2278 34.4375 31.8705 34.4375 33.5833V54.25M55.8125 62V51.6667C55.8125 49.9538 55.1869 48.3111 54.0734 47.0999C52.9599 45.8888 51.4497 45.2083 49.875 45.2083H48.1935M1.1875 62V55.5417C1.1875 52.8011 2.18839 50.1728 3.96999 48.2349C5.75158 46.297 8.16794 45.2083 10.6875 45.2083H20.1875V27.125H27.3125V26.4792L27.1629 26.2208C22.6052 18.3738 20.1866 9.28185 20.1875 0" stroke="#757575" stroke-width="2"/>
</svg>
