<svg width="55" height="60" viewBox="0 0 55 60" fill="none" xmlns="http://www.w3.org/2000/svg">
<path d="M32.7644 60V50C32.7644 48.3424 32.1693 46.7527 31.1099 45.5806C30.0505 44.4085 28.6136 43.75 27.1154 43.75H25.9856V60M46.3221 50V46.25C46.3221 45.4292 46.176 44.6165 45.8921 43.8582C45.6082 43.0999 45.1921 42.4109 44.6676 41.8306C44.143 41.2502 43.5202 40.7898 42.8349 40.4758C42.1495 40.1617 41.4149 40 40.6731 40H39.5433V50V26.25H38.4135C36.9152 26.25 35.4784 26.9085 34.419 28.0806C33.3596 29.2527 32.7644 30.8424 32.7644 32.5V52.5M53.101 60V50C53.101 48.3424 52.5058 46.7527 51.4464 45.5806C50.387 44.4085 48.9501 43.75 47.4519 43.75H45.8521M1.12981 60V53.75C1.12981 51.0978 2.08207 48.5543 3.77711 46.6789C5.47215 44.8036 7.77112 43.75 10.1683 43.75H19.2067V26.25H25.9856V25.625L25.8432 25.375C21.507 17.7811 19.2058 8.98244 19.2067 0" stroke="#757575" stroke-width="2"/>
</svg>
