<svg width="75" height="60" viewBox="0 0 75 60" fill="none" xmlns="http://www.w3.org/2000/svg">
<path d="M51.4012 15.9292C50.762 15.9292 50.209 15.719 49.7419 15.2987C49.2748 14.8783 49.0413 14.3805 49.0413 13.8053C49.0413 12.677 49.2748 11.5929 49.7419 10.5531C50.209 9.51327 50.8972 8.59513 51.8068 7.79867L54.7198 5.14381C55.6539 4.3031 56.1209 3.29646 56.1209 2.12389C56.1209 1.54867 56.3545 1.05088 56.8215 0.630531C57.2886 0.210177 57.8417 0 58.4808 0C59.12 0 59.6731 0.210177 60.1401 0.630531C60.6072 1.05088 60.8407 1.54867 60.8407 2.12389C60.8407 3.25221 60.6072 4.33628 60.1401 5.37611C59.6731 6.41593 58.9848 7.33407 58.0752 8.13053L55.1622 10.7854C54.2281 11.6261 53.7611 12.6327 53.7611 13.8053C53.7611 14.3805 53.5275 14.8783 53.0605 15.2987C52.5934 15.719 52.0403 15.9292 51.4012 15.9292ZM37.2419 15.9292C36.6028 15.9292 36.0497 15.719 35.5826 15.2987C35.1155 14.8783 34.882 14.3805 34.882 13.8053C34.882 12.677 35.1155 11.5929 35.5826 10.5531C36.0497 9.51327 36.738 8.59513 37.6475 7.79867L40.5605 5.14381C41.4946 4.3031 41.9617 3.29646 41.9617 2.12389C41.9617 1.54867 42.1952 1.05088 42.6622 0.630531C43.1293 0.210177 43.6824 0 44.3215 0C44.9607 0 45.5138 0.210177 45.9808 0.630531C46.4479 1.05088 46.6814 1.54867 46.6814 2.12389C46.6814 3.25221 46.4479 4.33628 45.9808 5.37611C45.5138 6.41593 44.8255 7.33407 43.9159 8.13053L41.003 10.7854C40.0688 11.6261 39.6018 12.6327 39.6018 13.8053C39.6018 14.3805 39.3682 14.8783 38.9012 15.2987C38.4341 15.719 37.881 15.9292 37.2419 15.9292ZM67.9204 21.7699C68.9036 21.7699 69.8255 21.9358 70.6858 22.2677C71.5462 22.5996 72.296 23.0531 72.9351 23.6283C73.5742 24.2035 74.0782 24.8783 74.4469 25.6527C74.8156 26.427 75 27.2566 75 28.1416V40.885C75 41.7699 74.8156 42.5996 74.4469 43.3739C74.0782 44.1482 73.5742 44.823 72.9351 45.3982C72.296 45.9734 71.5462 46.427 70.6858 46.7588C69.8255 47.0907 68.9036 47.2566 67.9204 47.2566H65.8186C65.7694 47.4115 65.7325 47.5553 65.708 47.6881C65.6834 47.8208 65.6342 47.9535 65.5605 48.0863V49.3805C65.5605 50.8407 65.2532 52.2124 64.6386 53.4956C64.0241 54.7788 63.176 55.9071 62.0944 56.8805C61.0128 57.854 59.7591 58.6173 58.3333 59.1704C56.9076 59.7234 55.3835 60 53.7611 60H39.6018C37.6844 60 35.9145 59.6128 34.292 58.8385C32.6696 58.0642 31.3176 57.0354 30.236 55.7522H11.7994C10.177 55.7522 8.6529 55.4757 7.22714 54.9226C5.80138 54.3695 4.54769 53.6173 3.46608 52.6659C2.38446 51.7146 1.53638 50.5863 0.921829 49.281C0.307276 47.9757 0 46.5929 0 45.1327V43.0088H9.43953C9.43953 41.2611 9.80826 39.6128 10.5457 38.0642C11.2832 36.5155 12.3033 35.1659 13.6062 34.0155C14.909 32.865 16.4086 31.9469 18.1047 31.2611C19.8009 30.5752 21.6323 30.2434 23.5988 30.2655C24.3363 30.2655 25.0492 30.3208 25.7375 30.4314C26.4258 30.542 27.1141 30.6969 27.8024 30.896V17.5221H65.5605V21.7699H67.9204ZM23.5988 34.5133C22.296 34.5133 21.0792 34.7345 19.9484 35.177C18.8176 35.6195 17.8097 36.2279 16.9248 37.0022C16.0398 37.7765 15.3638 38.6726 14.8968 39.6903C14.4297 40.708 14.1839 41.8142 14.1593 43.0088H27.8024V35.4425C27.1632 35.1549 26.4995 34.9336 25.8112 34.7788C25.1229 34.6239 24.3854 34.5354 23.5988 34.5133ZM11.7994 51.5044H28.0605C27.8884 50.8628 27.8024 50.1549 27.8024 49.3805V47.2566H5.12537C5.37119 47.8761 5.71534 48.4403 6.15782 48.9491C6.6003 49.458 7.10423 49.9115 7.66962 50.3097C8.23501 50.708 8.87414 50.9956 9.58702 51.1726C10.2999 51.3496 11.0374 51.4602 11.7994 51.5044ZM28.8717 53.7279V53.7611L28.9086 53.8274V53.7942L28.8717 53.7279ZM60.8407 49.3805V21.7699H32.5221V49.3805C32.5221 50.2655 32.7065 51.0951 33.0752 51.8695C33.444 52.6438 33.9479 53.3186 34.587 53.8938C35.2262 54.469 35.9759 54.9226 36.8363 55.2544C37.6967 55.5863 38.6185 55.7522 39.6018 55.7522H53.7611C54.7443 55.7522 55.6662 55.5863 56.5266 55.2544C57.3869 54.9226 58.1367 54.469 58.7758 53.8938C59.4149 53.3186 59.9189 52.6438 60.2876 51.8695C60.6563 51.0951 60.8407 50.2655 60.8407 49.3805ZM70.2802 40.885V28.1416C70.2802 27.5664 70.0467 27.0686 69.5796 26.6482C69.1126 26.2279 68.5595 26.0177 67.9204 26.0177H65.5605V43.0088H67.9204C68.5595 43.0088 69.1126 42.7987 69.5796 42.3783C70.0467 41.958 70.2802 41.4602 70.2802 40.885Z" fill="#757575"/>
</svg>
