<svg width="70" height="67" viewBox="0 0 70 67" fill="none" xmlns="http://www.w3.org/2000/svg">
<path d="M47.9744 17.7876C47.3779 17.7876 46.8617 17.5529 46.4258 17.0835C45.9898 16.6141 45.7719 16.0583 45.7719 15.4159C45.7719 14.156 45.9898 12.9454 46.4258 11.7843C46.8617 10.6232 47.5041 9.5979 48.353 8.70852L51.0718 5.74392C51.9436 4.80513 52.3795 3.68105 52.3795 2.37168C52.3795 1.72935 52.5975 1.17349 53.0334 0.704093C53.4694 0.234698 53.9856 0 54.5821 0C55.1786 0 55.6949 0.234698 56.1308 0.704093C56.5667 1.17349 56.7847 1.72935 56.7847 2.37168C56.7847 3.63164 56.5667 4.84218 56.1308 6.00332C55.6949 7.16445 55.0524 8.18971 54.2035 9.07909L51.4848 12.0437C50.6129 12.9825 50.177 14.1066 50.177 15.4159C50.177 16.0583 49.959 16.6141 49.5231 17.0835C49.0872 17.5529 48.571 17.7876 47.9744 17.7876ZM34.7591 17.7876C34.1626 17.7876 33.6463 17.5529 33.2104 17.0835C32.7745 16.6141 32.5565 16.0583 32.5565 15.4159C32.5565 14.156 32.7745 12.9454 33.2104 11.7843C33.6463 10.6232 34.2888 9.5979 35.1377 8.70852L37.8564 5.74392C38.7283 4.80513 39.1642 3.68105 39.1642 2.37168C39.1642 1.72935 39.3822 1.17349 39.8181 0.704093C40.254 0.234698 40.7702 0 41.3668 0C41.9633 0 42.4795 0.234698 42.9154 0.704093C43.3514 1.17349 43.5693 1.72935 43.5693 2.37168C43.5693 3.63164 43.3514 4.84218 42.9154 6.00332C42.4795 7.16445 41.8371 8.18971 40.9882 9.07909L38.2694 12.0437C37.3976 12.9825 36.9617 14.1066 36.9617 15.4159C36.9617 16.0583 36.7437 16.6141 36.3078 17.0835C35.8718 17.5529 35.3556 17.7876 34.7591 17.7876ZM63.3923 24.3097C64.3101 24.3097 65.1704 24.495 65.9735 24.8656C66.7765 25.2362 67.4762 25.7426 68.0728 26.385C68.6693 27.0273 69.1396 27.7808 69.4838 28.6455C69.8279 29.5101 70 30.4366 70 31.4248V45.6549C70 46.6431 69.8279 47.5695 69.4838 48.4342C69.1396 49.2989 68.6693 50.0524 68.0728 50.6947C67.4762 51.337 66.7765 51.8435 65.9735 52.214C65.1704 52.5846 64.3101 52.7699 63.3923 52.7699H61.4307C61.3848 52.9428 61.3504 53.1034 61.3274 53.2517C61.3045 53.3999 61.2586 53.5481 61.1898 53.6964V55.1416C61.1898 56.7721 60.903 58.3038 60.3294 59.7367C59.7558 61.1696 58.9643 62.4296 57.9548 63.5166C56.9453 64.6036 55.7752 65.4559 54.4444 66.0736C53.1137 66.6912 51.6913 67 50.177 67H36.9617C35.1721 67 33.5202 66.5677 32.0059 65.703C30.4916 64.8383 29.2298 63.6895 28.2203 62.2566H11.0128C9.49853 62.2566 8.07604 61.9478 6.74533 61.3302C5.41462 60.7126 4.24451 59.8726 3.23501 58.8103C2.2255 57.748 1.43396 56.488 0.860374 55.0304C0.286791 53.5728 0 52.0288 0 50.3982V48.0265H8.81023C8.81023 46.0749 9.15438 44.2343 9.84267 42.505C10.531 40.7756 11.4831 39.2686 12.6991 37.984C13.9151 36.6993 15.3147 35.674 16.8977 34.9082C18.4808 34.1423 20.1901 33.7718 22.0256 33.7965C22.7139 33.7965 23.3792 33.8582 24.0216 33.9817C24.664 34.1053 25.3065 34.2782 25.9489 34.5006V19.5664H61.1898V24.3097H63.3923ZM22.0256 38.5398C20.8096 38.5398 19.6739 38.7869 18.6185 39.281C17.5631 39.7751 16.6224 40.4545 15.7965 41.3191C14.9705 42.1838 14.3396 43.1844 13.9036 44.3208C13.4677 45.4572 13.2383 46.6925 13.2153 48.0265H25.9489V39.5774C25.3523 39.2563 24.7329 39.0092 24.0905 38.8363C23.4481 38.6633 22.7598 38.5645 22.0256 38.5398ZM11.0128 57.5133H26.1898C26.0292 56.7968 25.9489 56.0063 25.9489 55.1416V52.7699H4.78368C5.01311 53.4617 5.33432 54.0916 5.7473 54.6598C6.16028 55.2281 6.63061 55.7345 7.15831 56.1792C7.686 56.6239 8.28253 56.9451 8.94789 57.1427C9.61324 57.3403 10.3015 57.4639 11.0128 57.5133ZM26.9469 59.9961V60.0332L26.9813 60.1073V60.0702L26.9469 59.9961ZM56.7847 55.1416V24.3097H30.354V55.1416C30.354 56.1298 30.5261 57.0562 30.8702 57.9209C31.2144 58.7856 31.6847 59.5391 32.2812 60.1814C32.8777 60.8237 33.5775 61.3302 34.3805 61.7008C35.1835 62.0714 36.0439 62.2566 36.9617 62.2566H50.177C51.0947 62.2566 51.9551 62.0714 52.7581 61.7008C53.5611 61.3302 54.2609 60.8237 54.8574 60.1814C55.454 59.5391 55.9243 58.7856 56.2684 57.9209C56.6126 57.0562 56.7847 56.1298 56.7847 55.1416ZM65.5949 45.6549V31.4248C65.5949 30.7824 65.3769 30.2266 64.941 29.7572C64.5051 29.2878 63.9889 29.0531 63.3923 29.0531H61.1898V48.0265H63.3923C63.9889 48.0265 64.5051 47.7919 64.941 47.3225C65.3769 46.8531 65.5949 46.2972 65.5949 45.6549Z" fill="#757575"/>
</svg>
