<svg width="138" height="28" viewBox="0 0 138 28" fill="none" xmlns="http://www.w3.org/2000/svg">
<path d="M26.7375 10.8675H16.8619L13.8 1.29376L10.7381 10.8675H0.862488L8.84061 16.7756L5.82186 26.3063L13.8 20.3981L21.7781 26.3063L18.7162 16.7325L26.7375 10.8675Z" fill="#E9C34A"/>
<path d="M54.3375 10.8675H44.4618L41.4 1.29376L38.3381 10.8675H28.4625L36.4406 16.7756L33.4218 26.3063L41.4 20.3981L49.3781 26.3063L46.3162 16.7325L54.3375 10.8675Z" fill="#E9C34A"/>
<path d="M81.1257 10.8675H71.2501L68.1882 1.29376L65.1264 10.8675H55.2507L63.2289 16.7756L60.2101 26.3063L68.1882 20.3981L76.1664 26.3063L73.1045 16.7325L81.1257 10.8675Z" fill="#E9C34A"/>
<path d="M109.537 10.8675H99.6619L96.6 1.29376L93.5381 10.8675H83.6625L91.6406 16.7756L88.6219 26.3063L96.6 20.3981L104.578 26.3063L101.516 16.7325L109.537 10.8675Z" fill="#E9C34A"/>
<path d="M137.137 10.8675H127.262L124.2 1.29376L121.138 10.8675H111.262L119.241 16.7756L116.222 26.3063L124.2 20.3981L132.178 26.3063L129.116 16.7325L137.137 10.8675Z" fill="#E9C34A"/>
</svg>
