<svg width="25" height="25" viewBox="0 0 25 25" fill="none" xmlns="http://www.w3.org/2000/svg">
<path d="M21.6397 15.6543L17.0264 13.5869C16.8173 13.4974 16.5893 13.4614 16.3628 13.4822C16.1364 13.503 15.9187 13.5799 15.7295 13.7061C15.7103 13.7185 15.6921 13.7322 15.6748 13.7471L13.2637 15.7979C13.2387 15.8115 13.2108 15.8191 13.1823 15.8202C13.1539 15.8212 13.1255 15.8156 13.0996 15.8037C11.5498 15.0557 9.94434 13.46 9.19336 11.9317C9.18085 11.9061 9.17435 11.8781 9.17435 11.8496C9.17435 11.8212 9.18085 11.7931 9.19336 11.7676L11.251 9.3262C11.2658 9.30815 11.2795 9.28924 11.292 9.26956C11.4164 9.07962 11.4915 8.86169 11.5106 8.63545C11.5297 8.4092 11.4922 8.18176 11.4014 7.97366L9.34863 3.36819C9.23206 3.09632 9.03046 2.8696 8.77408 2.72204C8.51771 2.57449 8.22039 2.51406 7.92676 2.54983C6.65061 2.7176 5.47921 3.3443 4.63147 4.31282C3.78372 5.28134 3.31764 6.5254 3.32031 7.81253C3.32031 15.459 9.54102 21.6797 17.1875 21.6797C18.4746 21.6822 19.7185 21.216 20.687 20.3683C21.6555 19.5206 22.2822 18.3493 22.4502 17.0733C22.4859 16.781 22.4263 16.485 22.2802 16.2294C22.1342 15.9737 21.9095 15.772 21.6397 15.6543ZM17.1875 20.5078C10.1875 20.5078 4.49219 14.8125 4.49219 7.81253C4.48892 6.8105 4.85059 5.84157 5.50961 5.08675C6.16864 4.33194 7.07994 3.84288 8.07324 3.71096H8.0957C8.13506 3.7117 8.17327 3.72431 8.20534 3.74713C8.2374 3.76996 8.26182 3.80195 8.27539 3.83889L10.3359 8.43948C10.3477 8.46506 10.3538 8.49287 10.3538 8.52102C10.3538 8.54917 10.3477 8.57699 10.3359 8.60256L8.27442 11.0498C8.25911 11.0674 8.24508 11.086 8.23242 11.1055C8.10342 11.3024 8.02746 11.5293 8.01189 11.7642C7.99632 11.9991 8.04167 12.2341 8.14356 12.4463C9.00977 14.2198 10.7969 15.9932 12.5898 16.8594C12.8033 16.9607 13.0394 17.005 13.2751 16.9879C13.5108 16.9707 13.738 16.8928 13.9346 16.7617C13.9531 16.749 13.9717 16.7354 13.9893 16.7207L16.3994 14.6699C16.4232 14.6572 16.4495 14.6497 16.4765 14.648C16.5034 14.6463 16.5305 14.6505 16.5557 14.6602L21.1699 16.7276C21.2076 16.7436 21.2393 16.7711 21.2605 16.8062C21.2817 16.8412 21.2914 16.882 21.2881 16.9229C21.1569 17.9166 20.6683 18.8286 19.9136 19.4884C19.159 20.1481 18.1899 20.5105 17.1875 20.5078Z" fill="#757575"/>
</svg>
