<svg width="25" height="25" viewBox="0 0 25 25" fill="none" xmlns="http://www.w3.org/2000/svg">
<path d="M21.6396 15.6543L17.0264 13.5869C16.8173 13.4974 16.5893 13.4613 16.3628 13.4821C16.1364 13.5029 15.9187 13.5799 15.7295 13.7061C15.7103 13.7184 15.6921 13.7321 15.6748 13.7471L13.2637 15.7978C13.2387 15.8115 13.2108 15.8191 13.1823 15.8201C13.1539 15.8212 13.1255 15.8155 13.0996 15.8037C11.5498 15.0557 9.94434 13.46 9.19336 11.9316C9.18085 11.9061 9.17435 11.878 9.17435 11.8496C9.17435 11.8212 9.18085 11.7931 9.19336 11.7676L11.251 9.32617C11.2658 9.30812 11.2795 9.28921 11.292 9.26953C11.4164 9.07959 11.4915 8.86166 11.5106 8.63542C11.5297 8.40917 11.4922 8.18173 11.4014 7.97363L9.34863 3.36816C9.23206 3.0963 9.03046 2.86957 8.77408 2.72202C8.51771 2.57446 8.22039 2.51403 7.92676 2.5498C6.65061 2.71757 5.47921 3.34427 4.63147 4.31279C3.78372 5.28131 3.31764 6.52537 3.32031 7.8125C3.32031 15.459 9.54102 21.6797 17.1875 21.6797C18.4746 21.6822 19.7185 21.216 20.687 20.3683C21.6555 19.5206 22.2822 18.3493 22.4502 17.0732C22.4859 16.781 22.4263 16.485 22.2802 16.2293C22.1342 15.9737 21.9095 15.772 21.6396 15.6543ZM17.1875 20.5078C10.1875 20.5078 4.49219 14.8125 4.49219 7.8125C4.48892 6.81048 4.85059 5.84154 5.50961 5.08673C6.16864 4.33191 7.07994 3.84286 8.07324 3.71094H8.0957C8.13506 3.71167 8.17327 3.72428 8.20534 3.74711C8.2374 3.76994 8.26182 3.80192 8.27539 3.83887L10.3359 8.43945C10.3477 8.46503 10.3538 8.49285 10.3538 8.52099C10.3538 8.54914 10.3477 8.57696 10.3359 8.60254L8.27441 11.0498C8.25911 11.0673 8.24508 11.0859 8.23242 11.1055C8.10342 11.3024 8.02746 11.5293 8.01189 11.7642C7.99632 11.9991 8.04167 12.2341 8.14356 12.4463C9.00977 14.2197 10.7969 15.9932 12.5898 16.8594C12.8033 16.9607 13.0394 17.0049 13.2751 16.9878C13.5108 16.9707 13.738 16.8928 13.9346 16.7617C13.9531 16.749 13.9717 16.7353 13.9893 16.7207L16.3994 14.6699C16.4232 14.6571 16.4495 14.6496 16.4765 14.648C16.5034 14.6463 16.5305 14.6504 16.5557 14.6602L21.1699 16.7275C21.2076 16.7436 21.2393 16.7711 21.2605 16.8061C21.2817 16.8412 21.2914 16.882 21.2881 16.9228C21.1569 17.9166 20.6683 18.8286 19.9136 19.4883C19.159 20.1481 18.1899 20.5105 17.1875 20.5078Z" fill="white"/>
</svg>
