<svg width="46" height="48" viewBox="0 0 46 48" fill="none" xmlns="http://www.w3.org/2000/svg">
<path d="M6.55238 3C2.93833 3 0 5.69063 0 9V39C0 42.3094 2.93833 45 6.55238 45H39.3143C42.9283 45 45.8667 42.3094 45.8667 39V9C45.8667 5.69063 42.9283 3 39.3143 3H6.55238ZM36.9698 10.875L26.3426 21.9938L38.8433 37.125H29.0557L21.3976 27.9469L12.6236 37.125H7.76048L19.1248 25.2281L7.13595 10.875H17.1693L24.1005 19.2656L32.1067 10.875H36.9698ZM33.0998 34.4625L15.7052 13.3969H12.8079L30.3969 34.4625H33.0895H33.0998Z" fill="#0D99FF"/>
</svg>
